<?xml version="1.0" encoding="UTF-8"?>
<svg id="Capa_1" data-name="Capa 1" xmlns="http://www.w3.org/2000/svg" viewBox="0 0 720 720">
  <defs>
    <style>
      .cls-1 {
        fill: #f09294;
        stroke-width: 0px;
      }
    </style>
  </defs>
  <path class="cls-1" d="M515.68,170.97c-19.04,0-34.47,15.44-34.47,34.47s15.43,34.48,34.47,34.48,34.48-15.44,34.48-34.48-15.44-34.47-34.48-34.47Z"/>
  <path class="cls-1" d="M362.41,215.18c-79.86,0-144.83,64.97-144.83,144.82s64.97,144.82,144.83,144.82,144.82-64.97,144.82-144.82-64.97-144.82-144.82-144.82ZM362.41,452.77c-51.16,0-92.77-41.61-92.77-92.77s41.61-92.77,92.77-92.77,92.76,41.61,92.76,92.77-41.61,92.77-92.76,92.77Z"/>
  <path class="cls-1" d="M477.39,654.03h-234.78c-97.4,0-176.64-79.24-176.64-176.64v-234.79c0-97.4,79.24-176.64,176.64-176.64h234.78c97.4,0,176.65,79.24,176.65,176.64v234.79c0,97.4-79.25,176.64-176.65,176.64ZM242.6,121.29c-66.9,0-121.31,54.41-121.31,121.31v234.79c0,66.9,54.42,121.31,121.31,121.31h234.78c66.9,0,121.32-54.42,121.32-121.31v-234.79c0-66.89-54.42-121.31-121.32-121.31h-234.78Z"/>
</svg>