<?xml version="1.0" encoding="UTF-8"?>
<svg id="Capa_1" data-name="Capa 1" xmlns="http://www.w3.org/2000/svg" viewBox="0 0 720 720">
  <defs>
    <style>
      .cls-1, .cls-2 {
        fill: #f09294;
        stroke-width: 0px;
      }

      .cls-2 {
        fill-rule: evenodd;
      }
    </style>
  </defs>
  <path class="cls-1" d="M77.68,643.02l40.58-151.41c-22.98-41.45-35.07-87.91-35.07-135.06,0-154.15,125.42-279.57,279.57-279.57s279.57,125.42,279.57,279.57-125.41,279.57-279.57,279.57c-46.28,0-91.98-11.68-132.89-33.87l-152.19,40.77ZM237.43,545.51l9.58,5.72c35.18,20.96,75.21,32.05,115.74,32.05,125.01,0,226.72-101.7,226.72-226.72s-101.71-226.72-226.72-226.72-226.72,101.7-226.72,226.72c0,41.28,11.47,81.93,33.16,117.55l5.88,9.65-22.65,84.53,85.01-22.78Z"/>
  <path class="cls-2" d="M466.75,395.43c-11.51-6.88-26.48-14.57-40.04-9.02-10.4,4.25-17.04,20.53-23.78,28.85-3.46,4.27-7.59,4.93-12.9,2.79-39.04-15.55-68.96-41.61-90.5-77.52-3.65-5.58-3-9.98,1.4-15.15,6.51-7.66,14.68-16.36,16.44-26.69,1.76-10.32-3.08-22.4-7.35-31.59-5.46-11.75-11.56-28.51-23.32-35.15-10.83-6.11-25.07-2.69-34.71,5.16-16.64,13.55-24.67,34.78-24.43,55.82.07,5.98.8,11.94,2.2,17.71,3.36,13.88,9.77,26.84,16.99,39.16,5.44,9.29,11.36,18.3,17.74,26.98,20.88,28.36,46.86,53.01,76.94,71.44,15.03,9.21,31.22,17.28,47.98,22.82,18.8,6.21,35.55,12.68,55.85,8.82,21.25-4.03,42.21-17.19,50.64-37.67,2.5-6.07,3.75-12.82,2.35-19.22-2.89-13.24-20.81-21.12-31.53-27.52Z"/>
</svg>